<?xml version="1.0" standalone="no"?>
<!DOCTYPE svg PUBLIC "-//W3C//DTD SVG 20010904//EN"
 "http://www.w3.org/TR/2001/REC-SVG-20010904/DTD/svg10.dtd">
<svg version="1.0" xmlns="http://www.w3.org/2000/svg"
 width="192.000000pt" height="192.000000pt" viewBox="0 0 192.000000 192.000000"
 preserveAspectRatio="xMidYMid meet">
<metadata>
Created by potrace 1.14, written by Peter Selinger 2001-2017
</metadata>
<g transform="translate(0.000000,192.000000) scale(0.100000,-0.100000)"
fill="#000000" stroke="none">
<path d="M858 1750 c-184 -29 -318 -94 -447 -215 -248 -232 -317 -616 -167
-925 44 -89 66 -120 146 -204 163 -171 379 -256 615 -243 119 7 195 26 292 72
219 103 378 292 438 520 53 203 15 452 -98 630 -43 68 -160 189 -227 234 -158
106 -379 158 -552 131z m134 -352 c11 -13 52 -57 92 -98 233 -242 447 -473
444 -480 -3 -8 -220 -136 -481 -282 l-87 -50 -163 94 c-89 52 -217 126 -284
164 -67 38 -121 72 -120 76 4 14 561 598 570 598 5 0 18 -10 29 -22z"/>
<path d="M990 947 c0 -207 3 -377 6 -377 9 0 427 240 442 254 10 9 -35 62
-209 246 -122 129 -225 239 -230 245 -5 5 -9 -146 -9 -368z"/>
<path d="M831 1217 c-46 -51 -146 -158 -223 -239 l-139 -146 138 -80 c246
-142 317 -182 324 -182 4 0 6 8 4 18 -2 9 -4 176 -4 370 -1 193 -4 352 -8 351
-5 0 -46 -42 -92 -92z"/>
</g>
</svg>
